<?xml version="1.0" encoding="UTF-8" standalone="no"?>
<!DOCTYPE svg PUBLIC "-//W3C//DTD SVG 1.1//EN"
 "http://www.w3.org/Graphics/SVG/1.1/DTD/svg11.dtd">
<!-- Generated by graphviz version 2.50.0 (0)
 -->
<!-- Pages: 1 -->
<svg width="226pt" height="188pt"
 viewBox="0.00 0.00 226.38 188.00" xmlns="http://www.w3.org/2000/svg" xmlns:xlink="http://www.w3.org/1999/xlink">
<g id="graph0" class="graph" transform="scale(1 1) rotate(0) translate(4 184)">
<polygon fill="white" stroke="transparent" points="-4,4 -4,-184 222.38,-184 222.38,4 -4,4"/>
<!-- latency -->
<g id="node1" class="node">
<title>latency</title>
<ellipse fill="none" stroke="black" cx="109.19" cy="-18" rx="37.09" ry="18"/>
<text text-anchor="middle" x="109.19" y="-14.3" font-family="Times,serif" font-size="14.00">latency</text>
</g>
<!-- stat_database.xact_commit -->
<g id="node2" class="node">
<title>stat_database.xact_commit</title>
<ellipse fill="none" stroke="black" cx="109.19" cy="-90" rx="109.38" ry="18"/>
<text text-anchor="middle" x="109.19" y="-86.3" font-family="Times,serif" font-size="14.00">stat_database.xact_commit</text>
</g>
<!-- stat_database.xact_commit&#45;&gt;latency -->
<g id="edge1" class="edge">
<title>stat_database.xact_commit&#45;&gt;latency</title>
<path fill="none" stroke="black" d="M109.19,-71.7C109.19,-63.98 109.19,-54.71 109.19,-46.11"/>
<polygon fill="black" stroke="black" points="112.69,-46.1 109.19,-36.1 105.69,-46.1 112.69,-46.1"/>
</g>
<!-- default_statistics_target -->
<g id="node3" class="node">
<title>default_statistics_target</title>
<ellipse fill="none" stroke="black" cx="109.19" cy="-162" rx="96.68" ry="18"/>
<text text-anchor="middle" x="109.19" y="-158.3" font-family="Times,serif" font-size="14.00">default_statistics_target</text>
</g>
<!-- default_statistics_target&#45;&gt;stat_database.xact_commit -->
<g id="edge2" class="edge">
<title>default_statistics_target&#45;&gt;stat_database.xact_commit</title>
<path fill="none" stroke="black" d="M109.19,-143.7C109.19,-135.98 109.19,-126.71 109.19,-118.11"/>
<polygon fill="black" stroke="black" points="112.69,-118.1 109.19,-108.1 105.69,-118.1 112.69,-118.1"/>
</g>
</g>
</svg>
