<?xml version="1.0" encoding="UTF-8" standalone="no"?>
<!DOCTYPE svg PUBLIC "-//W3C//DTD SVG 1.1//EN"
 "http://www.w3.org/Graphics/SVG/1.1/DTD/svg11.dtd">
<!-- Generated by graphviz version 2.50.0 (0)
 -->
<!-- Pages: 1 -->
<svg width="612pt" height="188pt"
 viewBox="0.00 0.00 612.18 188.00" xmlns="http://www.w3.org/2000/svg" xmlns:xlink="http://www.w3.org/1999/xlink">
<g id="graph0" class="graph" transform="scale(1 1) rotate(0) translate(4 184)">
<polygon fill="white" stroke="transparent" points="-4,4 -4,-184 608.18,-184 608.18,4 -4,4"/>
<!-- latency -->
<g id="node1" class="node">
<title>latency</title>
<ellipse fill="none" stroke="black" cx="307.19" cy="-18" rx="37.09" ry="18"/>
<text text-anchor="middle" x="307.19" y="-14.3" font-family="Times,serif" font-size="14.00">latency</text>
</g>
<!-- io_index.idx_blks_read -->
<g id="node2" class="node">
<title>io_index.idx_blks_read</title>
<ellipse fill="none" stroke="black" cx="96.19" cy="-90" rx="96.38" ry="18"/>
<text text-anchor="middle" x="96.19" y="-86.3" font-family="Times,serif" font-size="14.00">io_index.idx_blks_read</text>
</g>
<!-- io_index.idx_blks_read&#45;&gt;latency -->
<g id="edge1" class="edge">
<title>io_index.idx_blks_read&#45;&gt;latency</title>
<path fill="none" stroke="black" d="M141.2,-74.07C178.81,-61.59 231.92,-43.97 267.86,-32.05"/>
<polygon fill="black" stroke="black" points="269.12,-35.32 277.51,-28.85 266.92,-28.67 269.12,-35.32"/>
</g>
<!-- shared_buffers -->
<g id="node3" class="node">
<title>shared_buffers</title>
<ellipse fill="none" stroke="black" cx="119.19" cy="-162" rx="64.19" ry="18"/>
<text text-anchor="middle" x="119.19" y="-158.3" font-family="Times,serif" font-size="14.00">shared_buffers</text>
</g>
<!-- shared_buffers&#45;&gt;io_index.idx_blks_read -->
<g id="edge2" class="edge">
<title>shared_buffers&#45;&gt;io_index.idx_blks_read</title>
<path fill="none" stroke="black" d="M113.62,-144.05C111.04,-136.18 107.89,-126.62 105,-117.79"/>
<polygon fill="black" stroke="black" points="108.31,-116.68 101.87,-108.28 101.66,-118.87 108.31,-116.68"/>
</g>
<!-- stat_database.blks_read -->
<g id="node4" class="node">
<title>stat_database.blks_read</title>
<ellipse fill="none" stroke="black" cx="307.19" cy="-90" rx="96.68" ry="18"/>
<text text-anchor="middle" x="307.19" y="-86.3" font-family="Times,serif" font-size="14.00">stat_database.blks_read</text>
</g>
<!-- shared_buffers&#45;&gt;stat_database.blks_read -->
<g id="edge3" class="edge">
<title>shared_buffers&#45;&gt;stat_database.blks_read</title>
<path fill="none" stroke="black" d="M156.33,-147.17C184.94,-136.52 224.81,-121.68 256.37,-109.92"/>
<polygon fill="black" stroke="black" points="257.73,-113.15 265.88,-106.38 255.28,-106.59 257.73,-113.15"/>
</g>
<!-- stat_database.blks_hit -->
<g id="node5" class="node">
<title>stat_database.blks_hit</title>
<ellipse fill="none" stroke="black" cx="513.19" cy="-90" rx="90.98" ry="18"/>
<text text-anchor="middle" x="513.19" y="-86.3" font-family="Times,serif" font-size="14.00">stat_database.blks_hit</text>
</g>
<!-- shared_buffers&#45;&gt;stat_database.blks_hit -->
<g id="edge4" class="edge">
<title>shared_buffers&#45;&gt;stat_database.blks_hit</title>
<path fill="none" stroke="black" d="M166.47,-149.67C175.33,-147.68 184.53,-145.7 193.19,-144 290.41,-124.9 315.46,-124.3 413.19,-108 420.82,-106.73 428.78,-105.39 436.73,-104.05"/>
<polygon fill="black" stroke="black" points="437.49,-107.47 446.77,-102.35 436.33,-100.57 437.49,-107.47"/>
</g>
<!-- stat_database.blks_read&#45;&gt;latency -->
<g id="edge11" class="edge">
<title>stat_database.blks_read&#45;&gt;latency</title>
<path fill="none" stroke="black" d="M307.19,-71.7C307.19,-63.98 307.19,-54.71 307.19,-46.11"/>
<polygon fill="black" stroke="black" points="310.69,-46.1 307.19,-36.1 303.69,-46.1 310.69,-46.1"/>
</g>
<!-- stat_database.blks_hit&#45;&gt;latency -->
<g id="edge12" class="edge">
<title>stat_database.blks_hit&#45;&gt;latency</title>
<path fill="none" stroke="black" d="M469.5,-74.15C433.17,-61.81 381.9,-44.39 346.76,-32.45"/>
<polygon fill="black" stroke="black" points="347.45,-28.98 336.86,-29.08 345.2,-35.61 347.45,-28.98"/>
</g>
<!-- effective_io_concurrency -->
<g id="node6" class="node">
<title>effective_io_concurrency</title>
<ellipse fill="none" stroke="black" cx="305.19" cy="-162" rx="103.18" ry="18"/>
<text text-anchor="middle" x="305.19" y="-158.3" font-family="Times,serif" font-size="14.00">effective_io_concurrency</text>
</g>
<!-- effective_io_concurrency&#45;&gt;io_index.idx_blks_read -->
<g id="edge5" class="edge">
<title>effective_io_concurrency&#45;&gt;io_index.idx_blks_read</title>
<path fill="none" stroke="black" d="M259.84,-145.81C227.83,-135.09 184.76,-120.67 150.85,-109.31"/>
<polygon fill="black" stroke="black" points="151.69,-105.9 141.09,-106.04 149.46,-112.53 151.69,-105.9"/>
</g>
<!-- effective_io_concurrency&#45;&gt;stat_database.blks_read -->
<g id="edge6" class="edge">
<title>effective_io_concurrency&#45;&gt;stat_database.blks_read</title>
<path fill="none" stroke="black" d="M305.69,-143.7C305.91,-135.98 306.17,-126.71 306.42,-118.11"/>
<polygon fill="black" stroke="black" points="309.92,-118.2 306.7,-108.1 302.92,-118 309.92,-118.2"/>
</g>
<!-- effective_io_concurrency&#45;&gt;stat_database.blks_hit -->
<g id="edge7" class="edge">
<title>effective_io_concurrency&#45;&gt;stat_database.blks_hit</title>
<path fill="none" stroke="black" d="M350.58,-145.72C382.57,-134.96 425.53,-120.5 459.27,-109.15"/>
<polygon fill="black" stroke="black" points="460.61,-112.39 468.97,-105.88 458.38,-105.75 460.61,-112.39"/>
</g>
<!-- effective_cache_size -->
<g id="node7" class="node">
<title>effective_cache_size</title>
<ellipse fill="none" stroke="black" cx="513.19" cy="-162" rx="86.38" ry="18"/>
<text text-anchor="middle" x="513.19" y="-158.3" font-family="Times,serif" font-size="14.00">effective_cache_size</text>
</g>
<!-- effective_cache_size&#45;&gt;io_index.idx_blks_read -->
<g id="edge8" class="edge">
<title>effective_cache_size&#45;&gt;io_index.idx_blks_read</title>
<path fill="none" stroke="black" d="M449.95,-149.69C439.03,-147.77 427.79,-145.81 417.19,-144 335.28,-129.99 241.49,-114.57 176.54,-104"/>
<polygon fill="black" stroke="black" points="176.8,-100.5 166.36,-102.35 175.67,-107.41 176.8,-100.5"/>
</g>
<!-- effective_cache_size&#45;&gt;stat_database.blks_read -->
<g id="edge9" class="edge">
<title>effective_cache_size&#45;&gt;stat_database.blks_read</title>
<path fill="none" stroke="black" d="M470.01,-146.33C438.33,-135.56 395.1,-120.87 361.15,-109.33"/>
<polygon fill="black" stroke="black" points="361.98,-105.92 351.38,-106.02 359.73,-112.55 361.98,-105.92"/>
</g>
<!-- effective_cache_size&#45;&gt;stat_database.blks_hit -->
<g id="edge10" class="edge">
<title>effective_cache_size&#45;&gt;stat_database.blks_hit</title>
<path fill="none" stroke="black" d="M513.19,-143.7C513.19,-135.98 513.19,-126.71 513.19,-118.11"/>
<polygon fill="black" stroke="black" points="516.69,-118.1 513.19,-108.1 509.69,-118.1 516.69,-118.1"/>
</g>
</g>
</svg>
