<?xml version="1.0" encoding="UTF-8" standalone="no"?>
<!DOCTYPE svg PUBLIC "-//W3C//DTD SVG 1.1//EN"
 "http://www.w3.org/Graphics/SVG/1.1/DTD/svg11.dtd">
<!-- Generated by graphviz version 2.50.0 (0)
 -->
<!-- Pages: 1 -->
<svg width="776pt" height="188pt"
 viewBox="0.00 0.00 776.18 188.00" xmlns="http://www.w3.org/2000/svg" xmlns:xlink="http://www.w3.org/1999/xlink">
<g id="graph0" class="graph" transform="scale(1 1) rotate(0) translate(4 184)">
<polygon fill="white" stroke="transparent" points="-4,4 -4,-184 772.18,-184 772.18,4 -4,4"/>
<!-- checkpoint_completion_target -->
<g id="node1" class="node">
<title>checkpoint_completion_target</title>
<ellipse fill="none" stroke="black" cx="197.34" cy="-162" rx="121.58" ry="18"/>
<text text-anchor="middle" x="197.34" y="-158.3" font-family="Times,serif" font-size="14.00">checkpoint_completion_target</text>
</g>
<!-- bg_writer.checkpoints_req -->
<g id="node2" class="node">
<title>bg_writer.checkpoints_req</title>
<ellipse fill="none" stroke="black" cx="501.34" cy="-90" rx="107.48" ry="18"/>
<text text-anchor="middle" x="501.34" y="-86.3" font-family="Times,serif" font-size="14.00">bg_writer.checkpoints_req</text>
</g>
<!-- checkpoint_completion_target&#45;&gt;bg_writer.checkpoints_req -->
<g id="edge1" class="edge">
<title>checkpoint_completion_target&#45;&gt;bg_writer.checkpoints_req</title>
<path fill="none" stroke="black" d="M260.33,-146.5C310.06,-135.05 379.41,-119.08 430.96,-107.21"/>
<polygon fill="black" stroke="black" points="432.06,-110.54 441.02,-104.89 430.49,-103.72 432.06,-110.54"/>
</g>
<!-- wal.wal_records -->
<g id="node3" class="node">
<title>wal.wal_records</title>
<ellipse fill="none" stroke="black" cx="697.34" cy="-90" rx="70.69" ry="18"/>
<text text-anchor="middle" x="697.34" y="-86.3" font-family="Times,serif" font-size="14.00">wal.wal_records</text>
</g>
<!-- checkpoint_completion_target&#45;&gt;wal.wal_records -->
<g id="edge2" class="edge">
<title>checkpoint_completion_target&#45;&gt;wal.wal_records</title>
<path fill="none" stroke="black" d="M285.41,-149.51C299.76,-147.65 314.46,-145.76 328.34,-144 456.74,-127.67 489.7,-129.47 617.34,-108 623.5,-106.96 629.9,-105.78 636.28,-104.54"/>
<polygon fill="black" stroke="black" points="637.14,-107.93 646.25,-102.54 635.76,-101.07 637.14,-107.93"/>
</g>
<!-- bg_writer.checkpoints_timed -->
<g id="node4" class="node">
<title>bg_writer.checkpoints_timed</title>
<ellipse fill="none" stroke="black" cx="116.34" cy="-90" rx="116.18" ry="18"/>
<text text-anchor="middle" x="116.34" y="-86.3" font-family="Times,serif" font-size="14.00">bg_writer.checkpoints_timed</text>
</g>
<!-- checkpoint_completion_target&#45;&gt;bg_writer.checkpoints_timed -->
<g id="edge3" class="edge">
<title>checkpoint_completion_target&#45;&gt;bg_writer.checkpoints_timed</title>
<path fill="none" stroke="black" d="M177.73,-144.05C167.48,-135.2 154.78,-124.22 143.59,-114.55"/>
<polygon fill="black" stroke="black" points="145.62,-111.68 135.77,-107.79 141.04,-116.98 145.62,-111.68"/>
</g>
<!-- wal.wal_bytes -->
<g id="node5" class="node">
<title>wal.wal_bytes</title>
<ellipse fill="none" stroke="black" cx="313.34" cy="-90" rx="63.09" ry="18"/>
<text text-anchor="middle" x="313.34" y="-86.3" font-family="Times,serif" font-size="14.00">wal.wal_bytes</text>
</g>
<!-- checkpoint_completion_target&#45;&gt;wal.wal_bytes -->
<g id="edge4" class="edge">
<title>checkpoint_completion_target&#45;&gt;wal.wal_bytes</title>
<path fill="none" stroke="black" d="M224.83,-144.41C241.03,-134.63 261.68,-122.18 278.95,-111.75"/>
<polygon fill="black" stroke="black" points="280.88,-114.67 287.64,-106.51 277.27,-108.68 280.88,-114.67"/>
</g>
<!-- latency -->
<g id="node7" class="node">
<title>latency</title>
<ellipse fill="none" stroke="black" cx="407.34" cy="-18" rx="37.09" ry="18"/>
<text text-anchor="middle" x="407.34" y="-14.3" font-family="Times,serif" font-size="14.00">latency</text>
</g>
<!-- bg_writer.checkpoints_req&#45;&gt;latency -->
<g id="edge9" class="edge">
<title>bg_writer.checkpoints_req&#45;&gt;latency</title>
<path fill="none" stroke="black" d="M478.58,-72.05C465.45,-62.27 448.83,-49.89 434.94,-39.56"/>
<polygon fill="black" stroke="black" points="436.82,-36.59 426.71,-33.42 432.64,-42.2 436.82,-36.59"/>
</g>
<!-- wal.wal_records&#45;&gt;latency -->
<g id="edge10" class="edge">
<title>wal.wal_records&#45;&gt;latency</title>
<path fill="none" stroke="black" d="M647.82,-77.05C592.16,-63.61 502.71,-42.02 450.02,-29.3"/>
<polygon fill="black" stroke="black" points="450.53,-25.83 439.99,-26.88 448.89,-32.63 450.53,-25.83"/>
</g>
<!-- bg_writer.checkpoints_timed&#45;&gt;latency -->
<g id="edge11" class="edge">
<title>bg_writer.checkpoints_timed&#45;&gt;latency</title>
<path fill="none" stroke="black" d="M176.64,-74.5C232.86,-60.97 315.29,-41.14 364.89,-29.21"/>
<polygon fill="black" stroke="black" points="365.75,-32.6 374.66,-26.86 364.12,-25.8 365.75,-32.6"/>
</g>
<!-- wal.wal_bytes&#45;&gt;latency -->
<g id="edge12" class="edge">
<title>wal.wal_bytes&#45;&gt;latency</title>
<path fill="none" stroke="black" d="M335.14,-72.76C348.35,-62.93 365.32,-50.29 379.49,-39.74"/>
<polygon fill="black" stroke="black" points="381.96,-42.26 387.89,-33.48 377.78,-36.65 381.96,-42.26"/>
</g>
<!-- checkpoint_timeout -->
<g id="node6" class="node">
<title>checkpoint_timeout</title>
<ellipse fill="none" stroke="black" cx="420.34" cy="-162" rx="83.39" ry="18"/>
<text text-anchor="middle" x="420.34" y="-158.3" font-family="Times,serif" font-size="14.00">checkpoint_timeout</text>
</g>
<!-- checkpoint_timeout&#45;&gt;bg_writer.checkpoints_req -->
<g id="edge5" class="edge">
<title>checkpoint_timeout&#45;&gt;bg_writer.checkpoints_req</title>
<path fill="none" stroke="black" d="M439.54,-144.41C449.95,-135.41 462.99,-124.14 474.41,-114.27"/>
<polygon fill="black" stroke="black" points="476.72,-116.9 482,-107.71 472.15,-111.6 476.72,-116.9"/>
</g>
<!-- checkpoint_timeout&#45;&gt;wal.wal_records -->
<g id="edge6" class="edge">
<title>checkpoint_timeout&#45;&gt;wal.wal_records</title>
<path fill="none" stroke="black" d="M472.44,-147.83C519.8,-135.87 589.6,-118.23 638.85,-105.78"/>
<polygon fill="black" stroke="black" points="639.88,-109.13 648.72,-103.29 638.17,-102.34 639.88,-109.13"/>
</g>
<!-- checkpoint_timeout&#45;&gt;bg_writer.checkpoints_timed -->
<g id="edge7" class="edge">
<title>checkpoint_timeout&#45;&gt;bg_writer.checkpoints_timed</title>
<path fill="none" stroke="black" d="M365.64,-148.4C316.07,-136.99 242.69,-120.09 188.37,-107.59"/>
<polygon fill="black" stroke="black" points="188.99,-104.14 178.46,-105.3 187.42,-110.96 188.99,-104.14"/>
</g>
<!-- checkpoint_timeout&#45;&gt;wal.wal_bytes -->
<g id="edge8" class="edge">
<title>checkpoint_timeout&#45;&gt;wal.wal_bytes</title>
<path fill="none" stroke="black" d="M395.52,-144.76C380.73,-135.09 361.78,-122.69 345.81,-112.24"/>
<polygon fill="black" stroke="black" points="347.57,-109.21 337.29,-106.67 343.74,-115.07 347.57,-109.21"/>
</g>
<!-- max_wal_size -->
<g id="node8" class="node">
<title>max_wal_size</title>
<ellipse fill="none" stroke="black" cx="584.34" cy="-162" rx="63.09" ry="18"/>
<text text-anchor="middle" x="584.34" y="-158.3" font-family="Times,serif" font-size="14.00">max_wal_size</text>
</g>
<!-- max_wal_size&#45;&gt;bg_writer.checkpoints_req -->
<g id="edge13" class="edge">
<title>max_wal_size&#45;&gt;bg_writer.checkpoints_req</title>
<path fill="none" stroke="black" d="M565.09,-144.76C554.43,-135.77 540.99,-124.44 529.2,-114.49"/>
<polygon fill="black" stroke="black" points="531.25,-111.65 521.35,-107.88 526.74,-117 531.25,-111.65"/>
</g>
<!-- max_wal_size&#45;&gt;wal.wal_records -->
<g id="edge14" class="edge">
<title>max_wal_size&#45;&gt;wal.wal_records</title>
<path fill="none" stroke="black" d="M609.42,-145.46C625.14,-135.72 645.63,-123.03 662.87,-112.35"/>
<polygon fill="black" stroke="black" points="664.89,-115.22 671.55,-106.98 661.2,-109.27 664.89,-115.22"/>
</g>
<!-- max_wal_size&#45;&gt;bg_writer.checkpoints_timed -->
<g id="edge15" class="edge">
<title>max_wal_size&#45;&gt;bg_writer.checkpoints_timed</title>
<path fill="none" stroke="black" d="M538.78,-149.52C530.04,-147.52 520.93,-145.58 512.34,-144 392.84,-122.01 361.76,-124.19 241.34,-108 231.31,-106.65 220.82,-105.24 210.37,-103.82"/>
<polygon fill="black" stroke="black" points="210.76,-100.34 200.38,-102.47 209.82,-107.28 210.76,-100.34"/>
</g>
<!-- max_wal_size&#45;&gt;wal.wal_bytes -->
<g id="edge16" class="edge">
<title>max_wal_size&#45;&gt;wal.wal_bytes</title>
<path fill="none" stroke="black" d="M539.29,-149.36C492.3,-137.23 418.61,-118.19 368.25,-105.18"/>
<polygon fill="black" stroke="black" points="369.06,-101.78 358.5,-102.67 367.31,-108.56 369.06,-101.78"/>
</g>
</g>
</svg>
