<?xml version="1.0" encoding="UTF-8" standalone="no"?>
<!DOCTYPE svg PUBLIC "-//W3C//DTD SVG 1.1//EN"
 "http://www.w3.org/Graphics/SVG/1.1/DTD/svg11.dtd">
<!-- Generated by graphviz version 2.50.0 (0)
 -->
<!-- Pages: 1 -->
<svg width="350pt" height="188pt"
 viewBox="0.00 0.00 350.49 188.00" xmlns="http://www.w3.org/2000/svg" xmlns:xlink="http://www.w3.org/1999/xlink">
<g id="graph0" class="graph" transform="scale(1 1) rotate(0) translate(4 184)">
<polygon fill="white" stroke="transparent" points="-4,4 -4,-184 346.49,-184 346.49,4 -4,4"/>
<!-- latency -->
<g id="node1" class="node">
<title>latency</title>
<ellipse fill="none" stroke="black" cx="186.84" cy="-18" rx="37.09" ry="18"/>
<text text-anchor="middle" x="186.84" y="-14.3" font-family="Times,serif" font-size="14.00">latency</text>
</g>
<!-- bg_writer.buffers_backend -->
<g id="node2" class="node">
<title>bg_writer.buffers_backend</title>
<ellipse fill="none" stroke="black" cx="186.84" cy="-90" rx="108.58" ry="18"/>
<text text-anchor="middle" x="186.84" y="-86.3" font-family="Times,serif" font-size="14.00">bg_writer.buffers_backend</text>
</g>
<!-- bg_writer.buffers_backend&#45;&gt;latency -->
<g id="edge1" class="edge">
<title>bg_writer.buffers_backend&#45;&gt;latency</title>
<path fill="none" stroke="black" d="M186.84,-71.7C186.84,-63.98 186.84,-54.71 186.84,-46.11"/>
<polygon fill="black" stroke="black" points="190.34,-46.1 186.84,-36.1 183.34,-46.1 190.34,-46.1"/>
</g>
<!-- bgwriter_lru_maxpages -->
<g id="node3" class="node">
<title>bgwriter_lru_maxpages</title>
<ellipse fill="none" stroke="black" cx="96.84" cy="-162" rx="96.68" ry="18"/>
<text text-anchor="middle" x="96.84" y="-158.3" font-family="Times,serif" font-size="14.00">bgwriter_lru_maxpages</text>
</g>
<!-- bgwriter_lru_maxpages&#45;&gt;bg_writer.buffers_backend -->
<g id="edge2" class="edge">
<title>bgwriter_lru_maxpages&#45;&gt;bg_writer.buffers_backend</title>
<path fill="none" stroke="black" d="M118.17,-144.41C129.85,-135.32 144.51,-123.92 157.28,-113.99"/>
<polygon fill="black" stroke="black" points="159.61,-116.61 165.35,-107.71 155.31,-111.09 159.61,-116.61"/>
</g>
<!-- bgwriter_delay -->
<g id="node4" class="node">
<title>bgwriter_delay</title>
<ellipse fill="none" stroke="black" cx="276.84" cy="-162" rx="65.79" ry="18"/>
<text text-anchor="middle" x="276.84" y="-158.3" font-family="Times,serif" font-size="14.00">bgwriter_delay</text>
</g>
<!-- bgwriter_delay&#45;&gt;bg_writer.buffers_backend -->
<g id="edge3" class="edge">
<title>bgwriter_delay&#45;&gt;bg_writer.buffers_backend</title>
<path fill="none" stroke="black" d="M255.97,-144.76C244.3,-135.69 229.55,-124.22 216.68,-114.21"/>
<polygon fill="black" stroke="black" points="218.58,-111.25 208.54,-107.88 214.29,-116.78 218.58,-111.25"/>
</g>
</g>
</svg>
