<?xml version="1.0" encoding="UTF-8" standalone="no"?>
<!DOCTYPE svg PUBLIC "-//W3C//DTD SVG 1.1//EN"
 "http://www.w3.org/Graphics/SVG/1.1/DTD/svg11.dtd">
<!-- Generated by graphviz version 2.50.0 (0)
 -->
<!-- Pages: 1 -->
<svg width="452pt" height="188pt"
 viewBox="0.00 0.00 451.53 188.00" xmlns="http://www.w3.org/2000/svg" xmlns:xlink="http://www.w3.org/1999/xlink">
<g id="graph0" class="graph" transform="scale(1 1) rotate(0) translate(4 184)">
<polygon fill="white" stroke="transparent" points="-4,4 -4,-184 447.53,-184 447.53,4 -4,4"/>
<!-- latency -->
<g id="node1" class="node">
<title>latency</title>
<ellipse fill="none" stroke="black" cx="213.14" cy="-18" rx="37.09" ry="18"/>
<text text-anchor="middle" x="213.14" y="-14.3" font-family="Times,serif" font-size="14.00">latency</text>
</g>
<!-- stat_database.deadlocks -->
<g id="node2" class="node">
<title>stat_database.deadlocks</title>
<ellipse fill="none" stroke="black" cx="98.14" cy="-90" rx="98.28" ry="18"/>
<text text-anchor="middle" x="98.14" y="-86.3" font-family="Times,serif" font-size="14.00">stat_database.deadlocks</text>
</g>
<!-- stat_database.deadlocks&#45;&gt;latency -->
<g id="edge1" class="edge">
<title>stat_database.deadlocks&#45;&gt;latency</title>
<path fill="none" stroke="black" d="M125.1,-72.59C142.18,-62.2 164.31,-48.72 182.11,-37.89"/>
<polygon fill="black" stroke="black" points="184.26,-40.68 190.98,-32.49 180.62,-34.7 184.26,-40.68"/>
</g>
<!-- deadlock_timeout -->
<g id="node3" class="node">
<title>deadlock_timeout</title>
<ellipse fill="none" stroke="black" cx="213.14" cy="-162" rx="76.09" ry="18"/>
<text text-anchor="middle" x="213.14" y="-158.3" font-family="Times,serif" font-size="14.00">deadlock_timeout</text>
</g>
<!-- deadlock_timeout&#45;&gt;stat_database.deadlocks -->
<g id="edge2" class="edge">
<title>deadlock_timeout&#45;&gt;stat_database.deadlocks</title>
<path fill="none" stroke="black" d="M186.76,-144.94C171.06,-135.39 150.93,-123.13 133.83,-112.72"/>
<polygon fill="black" stroke="black" points="135.56,-109.68 125.2,-107.47 131.92,-115.66 135.56,-109.68"/>
</g>
<!-- db_conflicts.confl_deadlock -->
<g id="node4" class="node">
<title>db_conflicts.confl_deadlock</title>
<ellipse fill="none" stroke="black" cx="329.14" cy="-90" rx="114.28" ry="18"/>
<text text-anchor="middle" x="329.14" y="-86.3" font-family="Times,serif" font-size="14.00">db_conflicts.confl_deadlock</text>
</g>
<!-- deadlock_timeout&#45;&gt;db_conflicts.confl_deadlock -->
<g id="edge3" class="edge">
<title>deadlock_timeout&#45;&gt;db_conflicts.confl_deadlock</title>
<path fill="none" stroke="black" d="M239.75,-144.94C255.48,-135.45 275.6,-123.31 292.77,-112.95"/>
<polygon fill="black" stroke="black" points="294.69,-115.88 301.44,-107.72 291.07,-109.89 294.69,-115.88"/>
</g>
<!-- db_conflicts.confl_deadlock&#45;&gt;latency -->
<g id="edge4" class="edge">
<title>db_conflicts.confl_deadlock&#45;&gt;latency</title>
<path fill="none" stroke="black" d="M301.65,-72.41C284.42,-62.01 262.17,-48.59 244.29,-37.8"/>
<polygon fill="black" stroke="black" points="245.76,-34.59 235.39,-32.42 242.14,-40.59 245.76,-34.59"/>
</g>
</g>
</svg>
