<?xml version="1.0" encoding="UTF-8" standalone="no"?>
<!DOCTYPE svg PUBLIC "-//W3C//DTD SVG 1.1//EN"
 "http://www.w3.org/Graphics/SVG/1.1/DTD/svg11.dtd">
<!-- Generated by graphviz version 2.40.1 (20161225.0304)
 -->
<!-- Pages: 1 -->
<svg width="413pt" height="260pt"
 viewBox="0.00 0.00 413.00 260.00" xmlns="http://www.w3.org/2000/svg" xmlns:xlink="http://www.w3.org/1999/xlink">
<g id="graph0" class="graph" transform="scale(1 1) rotate(0) translate(4 256)">
<polygon fill="#ffffff" stroke="transparent" points="-4,4 -4,-256 409,-256 409,4 -4,4"/>
<!-- x0 -->
<g id="node1" class="node">
<title>x0</title>
<ellipse fill="none" stroke="#000000" cx="62" cy="-90" rx="27" ry="18"/>
<text text-anchor="middle" x="62" y="-86.3" font-family="Times,serif" font-size="14.00" fill="#000000">x0</text>
</g>
<!-- y -->
<g id="node2" class="node">
<title>y</title>
<ellipse fill="none" stroke="#000000" cx="134" cy="-18" rx="27" ry="18"/>
<text text-anchor="middle" x="134" y="-14.3" font-family="Times,serif" font-size="14.00" fill="#000000">y</text>
</g>
<!-- x0&#45;&gt;y -->
<g id="edge1" class="edge">
<title>x0&#45;&gt;y</title>
<path fill="none" stroke="#000000" d="M77.2693,-74.7307C87.197,-64.803 100.3153,-51.6847 111.4363,-40.5637"/>
<polygon fill="#000000" stroke="#000000" points="114.1564,-42.7933 118.7527,-33.2473 109.2067,-37.8436 114.1564,-42.7933"/>
</g>
<!-- x1 -->
<g id="node3" class="node">
<title>x1</title>
<ellipse fill="none" stroke="#000000" cx="99" cy="-234" rx="27" ry="18"/>
<text text-anchor="middle" x="99" y="-230.3" font-family="Times,serif" font-size="14.00" fill="#000000">x1</text>
</g>
<!-- z1 -->
<g id="node4" class="node">
<title>z1</title>
<ellipse fill="none" stroke="#000000" cx="52" cy="-162" rx="27" ry="18"/>
<text text-anchor="middle" x="52" y="-158.3" font-family="Times,serif" font-size="14.00" fill="#000000">z1</text>
</g>
<!-- x1&#45;&gt;z1 -->
<g id="edge2" class="edge">
<title>x1&#45;&gt;z1</title>
<path fill="none" stroke="#000000" d="M88.0991,-217.3008C82.2264,-208.3043 74.8634,-197.0247 68.3213,-187.0029"/>
<polygon fill="#000000" stroke="#000000" points="71.2389,-185.0693 62.8418,-178.6087 65.3772,-188.8957 71.2389,-185.0693"/>
</g>
<!-- z3 -->
<g id="node5" class="node">
<title>z3</title>
<ellipse fill="none" stroke="#000000" cx="134" cy="-90" rx="27" ry="18"/>
<text text-anchor="middle" x="134" y="-86.3" font-family="Times,serif" font-size="14.00" fill="#000000">z3</text>
</g>
<!-- x1&#45;&gt;z3 -->
<g id="edge3" class="edge">
<title>x1&#45;&gt;z3</title>
<path fill="none" stroke="#000000" d="M103.362,-216.0535C109.3354,-191.4774 120.1213,-147.1008 127.1708,-118.0974"/>
<polygon fill="#000000" stroke="#000000" points="130.6221,-118.7165 129.583,-108.1727 123.8202,-117.0632 130.6221,-118.7165"/>
</g>
<!-- z1&#45;&gt;z3 -->
<g id="edge9" class="edge">
<title>z1&#45;&gt;z3</title>
<path fill="none" stroke="#000000" d="M68.5939,-147.4297C80.3754,-137.0851 96.384,-123.0286 109.6145,-111.4116"/>
<polygon fill="#000000" stroke="#000000" points="112.2256,-113.7767 117.4308,-104.5486 107.607,-108.5166 112.2256,-113.7767"/>
</g>
<!-- z3&#45;&gt;y -->
<g id="edge11" class="edge">
<title>z3&#45;&gt;y</title>
<path fill="none" stroke="#000000" d="M134,-71.8314C134,-64.131 134,-54.9743 134,-46.4166"/>
<polygon fill="#000000" stroke="#000000" points="137.5001,-46.4132 134,-36.4133 130.5001,-46.4133 137.5001,-46.4132"/>
</g>
<!-- x2 -->
<g id="node6" class="node">
<title>x2</title>
<ellipse fill="none" stroke="#000000" cx="27" cy="-234" rx="27" ry="18"/>
<text text-anchor="middle" x="27" y="-230.3" font-family="Times,serif" font-size="14.00" fill="#000000">x2</text>
</g>
<!-- x2&#45;&gt;z1 -->
<g id="edge4" class="edge">
<title>x2&#45;&gt;z1</title>
<path fill="none" stroke="#000000" d="M33.1798,-216.2022C35.9953,-208.0936 39.3913,-198.3129 42.5191,-189.3049"/>
<polygon fill="#000000" stroke="#000000" points="45.9175,-190.1878 45.8913,-179.593 39.3048,-187.8917 45.9175,-190.1878"/>
</g>
<!-- x3 -->
<g id="node7" class="node">
<title>x3</title>
<ellipse fill="none" stroke="#000000" cx="234" cy="-162" rx="27" ry="18"/>
<text text-anchor="middle" x="234" y="-158.3" font-family="Times,serif" font-size="14.00" fill="#000000">x3</text>
</g>
<!-- z2 -->
<g id="node8" class="node">
<title>z2</title>
<ellipse fill="none" stroke="#000000" cx="270" cy="-90" rx="27" ry="18"/>
<text text-anchor="middle" x="270" y="-86.3" font-family="Times,serif" font-size="14.00" fill="#000000">z2</text>
</g>
<!-- x3&#45;&gt;z2 -->
<g id="edge5" class="edge">
<title>x3&#45;&gt;z2</title>
<path fill="none" stroke="#000000" d="M242.7146,-144.5708C246.9597,-136.0807 252.1536,-125.6929 256.8663,-116.2674"/>
<polygon fill="#000000" stroke="#000000" points="260.024,-117.7782 261.3657,-107.2687 253.763,-114.6477 260.024,-117.7782"/>
</g>
<!-- z2&#45;&gt;y -->
<g id="edge10" class="edge">
<title>z2&#45;&gt;y</title>
<path fill="none" stroke="#000000" d="M248.75,-78.75C226.1278,-66.7735 190.1261,-47.7138 164.484,-34.1386"/>
<polygon fill="#000000" stroke="#000000" points="166.0251,-30.9943 155.5496,-29.4086 162.7499,-37.1808 166.0251,-30.9943"/>
</g>
<!-- x4 -->
<g id="node9" class="node">
<title>x4</title>
<ellipse fill="none" stroke="#000000" cx="306" cy="-162" rx="27" ry="18"/>
<text text-anchor="middle" x="306" y="-158.3" font-family="Times,serif" font-size="14.00" fill="#000000">x4</text>
</g>
<!-- x4&#45;&gt;z2 -->
<g id="edge6" class="edge">
<title>x4&#45;&gt;z2</title>
<path fill="none" stroke="#000000" d="M297.2854,-144.5708C293.0403,-136.0807 287.8464,-125.6929 283.1337,-116.2674"/>
<polygon fill="#000000" stroke="#000000" points="286.237,-114.6477 278.6343,-107.2687 279.976,-117.7782 286.237,-114.6477"/>
</g>
<!-- x5 -->
<g id="node10" class="node">
<title>x5</title>
<ellipse fill="none" stroke="#000000" cx="378" cy="-162" rx="27" ry="18"/>
<text text-anchor="middle" x="378" y="-158.3" font-family="Times,serif" font-size="14.00" fill="#000000">x5</text>
</g>
<!-- x5&#45;&gt;z2 -->
<g id="edge7" class="edge">
<title>x5&#45;&gt;z2</title>
<path fill="none" stroke="#000000" d="M358.6918,-149.1278C341.6445,-137.763 316.5981,-121.0654 297.4656,-108.3104"/>
<polygon fill="#000000" stroke="#000000" points="299.4031,-105.3956 289.1411,-102.7607 295.5201,-111.2199 299.4031,-105.3956"/>
</g>
<!-- x6 -->
<g id="node11" class="node">
<title>x6</title>
<ellipse fill="none" stroke="#000000" cx="171" cy="-234" rx="27" ry="18"/>
<text text-anchor="middle" x="171" y="-230.3" font-family="Times,serif" font-size="14.00" fill="#000000">x6</text>
</g>
<!-- z4 -->
<g id="node12" class="node">
<title>z4</title>
<ellipse fill="none" stroke="#000000" cx="162" cy="-162" rx="27" ry="18"/>
<text text-anchor="middle" x="162" y="-158.3" font-family="Times,serif" font-size="14.00" fill="#000000">z4</text>
</g>
<!-- x6&#45;&gt;z4 -->
<g id="edge8" class="edge">
<title>x6&#45;&gt;z4</title>
<path fill="none" stroke="#000000" d="M168.7289,-215.8314C167.7664,-208.131 166.6218,-198.9743 165.5521,-190.4166"/>
<polygon fill="#000000" stroke="#000000" points="169.0151,-189.9019 164.3017,-180.4133 162.0691,-190.7702 169.0151,-189.9019"/>
</g>
<!-- z4&#45;&gt;z3 -->
<g id="edge12" class="edge">
<title>z4&#45;&gt;z3</title>
<path fill="none" stroke="#000000" d="M155.222,-144.5708C152.0128,-136.3187 148.1065,-126.2738 144.5242,-117.0623"/>
<polygon fill="#000000" stroke="#000000" points="147.6992,-115.5697 140.8126,-107.5182 141.1752,-118.1069 147.6992,-115.5697"/>
</g>
</g>
</svg>
