<?xml version="1.0" encoding="UTF-8" standalone="no"?>
<!DOCTYPE svg PUBLIC "-//W3C//DTD SVG 1.1//EN"
 "http://www.w3.org/Graphics/SVG/1.1/DTD/svg11.dtd">
<!-- Generated by graphviz version 2.40.1 (20161225.0304)
 -->
<!-- Pages: 1 -->
<svg width="206pt" height="188pt"
 viewBox="0.00 0.00 206.00 188.00" xmlns="http://www.w3.org/2000/svg" xmlns:xlink="http://www.w3.org/1999/xlink">
<g id="graph0" class="graph" transform="scale(1 1) rotate(0) translate(4 184)">
<polygon fill="#ffffff" stroke="transparent" points="-4,4 -4,-184 202,-184 202,4 -4,4"/>
<!-- z2 -->
<g id="node1" class="node">
<title>z2</title>
<ellipse fill="none" stroke="#000000" cx="99" cy="-90" rx="27" ry="18"/>
<text text-anchor="middle" x="99" y="-86.3" font-family="Times,serif" font-size="14.00" fill="#000000">z2</text>
</g>
<!-- y -->
<g id="node2" class="node">
<title>y</title>
<ellipse fill="none" stroke="#000000" cx="99" cy="-18" rx="27" ry="18"/>
<text text-anchor="middle" x="99" y="-14.3" font-family="Times,serif" font-size="14.00" fill="#000000">y</text>
</g>
<!-- z2&#45;&gt;y -->
<g id="edge1" class="edge">
<title>z2&#45;&gt;y</title>
<path fill="none" stroke="#000000" d="M99,-71.8314C99,-64.131 99,-54.9743 99,-46.4166"/>
<polygon fill="#000000" stroke="#000000" points="102.5001,-46.4132 99,-36.4133 95.5001,-46.4133 102.5001,-46.4132"/>
</g>
<!-- x5 -->
<g id="node3" class="node">
<title>x5</title>
<ellipse fill="none" stroke="#000000" cx="27" cy="-162" rx="27" ry="18"/>
<text text-anchor="middle" x="27" y="-158.3" font-family="Times,serif" font-size="14.00" fill="#000000">x5</text>
</g>
<!-- x5&#45;&gt;z2 -->
<g id="edge2" class="edge">
<title>x5&#45;&gt;z2</title>
<path fill="none" stroke="#000000" d="M42.2693,-146.7307C52.197,-136.803 65.3153,-123.6847 76.4363,-112.5637"/>
<polygon fill="#000000" stroke="#000000" points="79.1564,-114.7933 83.7527,-105.2473 74.2067,-109.8436 79.1564,-114.7933"/>
</g>
<!-- x4 -->
<g id="node4" class="node">
<title>x4</title>
<ellipse fill="none" stroke="#000000" cx="99" cy="-162" rx="27" ry="18"/>
<text text-anchor="middle" x="99" y="-158.3" font-family="Times,serif" font-size="14.00" fill="#000000">x4</text>
</g>
<!-- x4&#45;&gt;z2 -->
<g id="edge3" class="edge">
<title>x4&#45;&gt;z2</title>
<path fill="none" stroke="#000000" d="M99,-143.8314C99,-136.131 99,-126.9743 99,-118.4166"/>
<polygon fill="#000000" stroke="#000000" points="102.5001,-118.4132 99,-108.4133 95.5001,-118.4133 102.5001,-118.4132"/>
</g>
<!-- x3 -->
<g id="node5" class="node">
<title>x3</title>
<ellipse fill="none" stroke="#000000" cx="171" cy="-162" rx="27" ry="18"/>
<text text-anchor="middle" x="171" y="-158.3" font-family="Times,serif" font-size="14.00" fill="#000000">x3</text>
</g>
<!-- x3&#45;&gt;z2 -->
<g id="edge4" class="edge">
<title>x3&#45;&gt;z2</title>
<path fill="none" stroke="#000000" d="M155.7307,-146.7307C145.803,-136.803 132.6847,-123.6847 121.5637,-112.5637"/>
<polygon fill="#000000" stroke="#000000" points="123.7933,-109.8436 114.2473,-105.2473 118.8436,-114.7933 123.7933,-109.8436"/>
</g>
</g>
</svg>
