<?xml version="1.0" encoding="UTF-8" standalone="no"?>
<!DOCTYPE svg PUBLIC "-//W3C//DTD SVG 1.1//EN"
 "http://www.w3.org/Graphics/SVG/1.1/DTD/svg11.dtd">
<!-- Generated by graphviz version 2.40.1 (20161225.0304)
 -->
<!-- Pages: 1 -->
<svg width="134pt" height="260pt"
 viewBox="0.00 0.00 134.00 260.00" xmlns="http://www.w3.org/2000/svg" xmlns:xlink="http://www.w3.org/1999/xlink">
<g id="graph0" class="graph" transform="scale(1 1) rotate(0) translate(4 256)">
<polygon fill="#ffffff" stroke="transparent" points="-4,4 -4,-256 130,-256 130,4 -4,4"/>
<!-- z3 -->
<g id="node1" class="node">
<title>z3</title>
<ellipse fill="none" stroke="#000000" cx="54" cy="-90" rx="27" ry="18"/>
<text text-anchor="middle" x="54" y="-86.3" font-family="Times,serif" font-size="14.00" fill="#000000">z3</text>
</g>
<!-- y -->
<g id="node2" class="node">
<title>y</title>
<ellipse fill="none" stroke="#000000" cx="54" cy="-18" rx="27" ry="18"/>
<text text-anchor="middle" x="54" y="-14.3" font-family="Times,serif" font-size="14.00" fill="#000000">y</text>
</g>
<!-- z3&#45;&gt;y -->
<g id="edge1" class="edge">
<title>z3&#45;&gt;y</title>
<path fill="none" stroke="#000000" d="M54,-71.8314C54,-64.131 54,-54.9743 54,-46.4166"/>
<polygon fill="#000000" stroke="#000000" points="57.5001,-46.4132 54,-36.4133 50.5001,-46.4133 57.5001,-46.4132"/>
</g>
<!-- x1 -->
<g id="node3" class="node">
<title>x1</title>
<ellipse fill="none" stroke="#000000" cx="27" cy="-234" rx="27" ry="18"/>
<text text-anchor="middle" x="27" y="-230.3" font-family="Times,serif" font-size="14.00" fill="#000000">x1</text>
</g>
<!-- x1&#45;&gt;z3 -->
<g id="edge2" class="edge">
<title>x1&#45;&gt;z3</title>
<path fill="none" stroke="#000000" d="M30.365,-216.0535C34.973,-191.4774 43.2936,-147.1008 48.7317,-118.0974"/>
<polygon fill="#000000" stroke="#000000" points="52.1897,-118.6465 50.5926,-108.1727 45.3096,-117.3564 52.1897,-118.6465"/>
</g>
<!-- z1 -->
<g id="node4" class="node">
<title>z1</title>
<ellipse fill="none" stroke="#000000" cx="82" cy="-162" rx="27" ry="18"/>
<text text-anchor="middle" x="82" y="-158.3" font-family="Times,serif" font-size="14.00" fill="#000000">z1</text>
</g>
<!-- x1&#45;&gt;z1 -->
<g id="edge3" class="edge">
<title>x1&#45;&gt;z1</title>
<path fill="none" stroke="#000000" d="M39.4804,-217.6621C46.5124,-208.4564 55.4347,-196.7764 63.2883,-186.4953"/>
<polygon fill="#000000" stroke="#000000" points="66.28,-188.3446 69.569,-178.2733 60.7172,-184.0953 66.28,-188.3446"/>
</g>
<!-- z1&#45;&gt;z3 -->
<g id="edge4" class="edge">
<title>z1&#45;&gt;z3</title>
<path fill="none" stroke="#000000" d="M75.222,-144.5708C72.0128,-136.3187 68.1065,-126.2738 64.5242,-117.0623"/>
<polygon fill="#000000" stroke="#000000" points="67.6992,-115.5697 60.8126,-107.5182 61.1752,-118.1069 67.6992,-115.5697"/>
</g>
<!-- x2 -->
<g id="node5" class="node">
<title>x2</title>
<ellipse fill="none" stroke="#000000" cx="99" cy="-234" rx="27" ry="18"/>
<text text-anchor="middle" x="99" y="-230.3" font-family="Times,serif" font-size="14.00" fill="#000000">x2</text>
</g>
<!-- x2&#45;&gt;z1 -->
<g id="edge5" class="edge">
<title>x2&#45;&gt;z1</title>
<path fill="none" stroke="#000000" d="M94.7978,-216.2022C92.9179,-208.2406 90.6575,-198.6671 88.5629,-189.7957"/>
<polygon fill="#000000" stroke="#000000" points="91.9172,-188.7706 86.2128,-179.8425 85.1045,-190.3792 91.9172,-188.7706"/>
</g>
</g>
</svg>
