<?xml version="1.0" encoding="UTF-8" standalone="no"?>
<!DOCTYPE svg PUBLIC "-//W3C//DTD SVG 1.1//EN"
 "http://www.w3.org/Graphics/SVG/1.1/DTD/svg11.dtd">
<!-- Generated by graphviz version 2.40.1 (20161225.0304)
 -->
<!-- Pages: 1 -->
<svg width="62pt" height="260pt"
 viewBox="0.00 0.00 62.00 260.00" xmlns="http://www.w3.org/2000/svg" xmlns:xlink="http://www.w3.org/1999/xlink">
<g id="graph0" class="graph" transform="scale(1 1) rotate(0) translate(4 256)">
<polygon fill="#ffffff" stroke="transparent" points="-4,4 -4,-256 58,-256 58,4 -4,4"/>
<!-- z3 -->
<g id="node1" class="node">
<title>z3</title>
<ellipse fill="none" stroke="#000000" cx="27" cy="-90" rx="27" ry="18"/>
<text text-anchor="middle" x="27" y="-86.3" font-family="Times,serif" font-size="14.00" fill="#000000">z3</text>
</g>
<!-- y -->
<g id="node2" class="node">
<title>y</title>
<ellipse fill="none" stroke="#000000" cx="27" cy="-18" rx="27" ry="18"/>
<text text-anchor="middle" x="27" y="-14.3" font-family="Times,serif" font-size="14.00" fill="#000000">y</text>
</g>
<!-- z3&#45;&gt;y -->
<g id="edge1" class="edge">
<title>z3&#45;&gt;y</title>
<path fill="none" stroke="#000000" d="M27,-71.8314C27,-64.131 27,-54.9743 27,-46.4166"/>
<polygon fill="#000000" stroke="#000000" points="30.5001,-46.4132 27,-36.4133 23.5001,-46.4133 30.5001,-46.4132"/>
</g>
<!-- z4 -->
<g id="node3" class="node">
<title>z4</title>
<ellipse fill="none" stroke="#000000" cx="27" cy="-162" rx="27" ry="18"/>
<text text-anchor="middle" x="27" y="-158.3" font-family="Times,serif" font-size="14.00" fill="#000000">z4</text>
</g>
<!-- z4&#45;&gt;z3 -->
<g id="edge2" class="edge">
<title>z4&#45;&gt;z3</title>
<path fill="none" stroke="#000000" d="M27,-143.8314C27,-136.131 27,-126.9743 27,-118.4166"/>
<polygon fill="#000000" stroke="#000000" points="30.5001,-118.4132 27,-108.4133 23.5001,-118.4133 30.5001,-118.4132"/>
</g>
<!-- x6 -->
<g id="node4" class="node">
<title>x6</title>
<ellipse fill="none" stroke="#000000" cx="27" cy="-234" rx="27" ry="18"/>
<text text-anchor="middle" x="27" y="-230.3" font-family="Times,serif" font-size="14.00" fill="#000000">x6</text>
</g>
<!-- x6&#45;&gt;z4 -->
<g id="edge3" class="edge">
<title>x6&#45;&gt;z4</title>
<path fill="none" stroke="#000000" d="M27,-215.8314C27,-208.131 27,-198.9743 27,-190.4166"/>
<polygon fill="#000000" stroke="#000000" points="30.5001,-190.4132 27,-180.4133 23.5001,-190.4133 30.5001,-190.4132"/>
</g>
</g>
</svg>
