<?xml version="1.0" encoding="UTF-8" standalone="no"?>
<!DOCTYPE svg PUBLIC "-//W3C//DTD SVG 1.1//EN"
 "http://www.w3.org/Graphics/SVG/1.1/DTD/svg11.dtd">
<!-- Generated by graphviz version 2.50.0 (0)
 -->
<!-- Pages: 1 -->
<svg width="2333pt" height="188pt"
 viewBox="0.00 0.00 2333.38 188.00" xmlns="http://www.w3.org/2000/svg" xmlns:xlink="http://www.w3.org/1999/xlink">
<g id="graph0" class="graph" transform="scale(1 1) rotate(0) translate(4 184)">
<polygon fill="white" stroke="transparent" points="-4,4 -4,-184 2329.38,-184 2329.38,4 -4,4"/>
<!-- checkpoint_timeout -->
<g id="node1" class="node">
<title>checkpoint_timeout</title>
<ellipse fill="none" stroke="black" cx="167.24" cy="-162" rx="83.39" ry="18"/>
<text text-anchor="middle" x="167.24" y="-158.3" font-family="Times,serif" font-size="14.00">checkpoint_timeout</text>
</g>
<!-- wal.wal_records -->
<g id="node2" class="node">
<title>wal.wal_records</title>
<ellipse fill="none" stroke="black" cx="303.24" cy="-90" rx="70.69" ry="18"/>
<text text-anchor="middle" x="303.24" y="-86.3" font-family="Times,serif" font-size="14.00">wal.wal_records</text>
</g>
<!-- checkpoint_timeout&#45;&gt;wal.wal_records -->
<g id="edge1" class="edge">
<title>checkpoint_timeout&#45;&gt;wal.wal_records</title>
<path fill="none" stroke="black" d="M198.1,-145.12C217.76,-135 243.4,-121.8 264.43,-110.97"/>
<polygon fill="black" stroke="black" points="266.15,-114.03 273.44,-106.34 262.94,-107.8 266.15,-114.03"/>
</g>
<!-- wal.wal_bytes -->
<g id="node3" class="node">
<title>wal.wal_bytes</title>
<ellipse fill="none" stroke="black" cx="455.24" cy="-90" rx="63.09" ry="18"/>
<text text-anchor="middle" x="455.24" y="-86.3" font-family="Times,serif" font-size="14.00">wal.wal_bytes</text>
</g>
<!-- checkpoint_timeout&#45;&gt;wal.wal_bytes -->
<g id="edge2" class="edge">
<title>checkpoint_timeout&#45;&gt;wal.wal_bytes</title>
<path fill="none" stroke="black" d="M220.4,-148.08C270.99,-135.78 346.86,-117.34 398.57,-104.77"/>
<polygon fill="black" stroke="black" points="399.69,-108.1 408.58,-102.34 398.04,-101.3 399.69,-108.1"/>
</g>
<!-- bg_writer.checkpoints_timed -->
<g id="node4" class="node">
<title>bg_writer.checkpoints_timed</title>
<ellipse fill="none" stroke="black" cx="652.24" cy="-90" rx="116.18" ry="18"/>
<text text-anchor="middle" x="652.24" y="-86.3" font-family="Times,serif" font-size="14.00">bg_writer.checkpoints_timed</text>
</g>
<!-- checkpoint_timeout&#45;&gt;bg_writer.checkpoints_timed -->
<g id="edge3" class="edge">
<title>checkpoint_timeout&#45;&gt;bg_writer.checkpoints_timed</title>
<path fill="none" stroke="black" d="M227.54,-149.42C238.09,-147.52 248.97,-145.64 259.24,-144 377.92,-125.08 408.14,-124.1 527.24,-108 537.27,-106.64 547.76,-105.22 558.21,-103.81"/>
<polygon fill="black" stroke="black" points="558.76,-107.26 568.19,-102.45 557.81,-100.33 558.76,-107.26"/>
</g>
<!-- bg_writer.checkpoints_req -->
<g id="node5" class="node">
<title>bg_writer.checkpoints_req</title>
<ellipse fill="none" stroke="black" cx="107.24" cy="-90" rx="107.48" ry="18"/>
<text text-anchor="middle" x="107.24" y="-86.3" font-family="Times,serif" font-size="14.00">bg_writer.checkpoints_req</text>
</g>
<!-- checkpoint_timeout&#45;&gt;bg_writer.checkpoints_req -->
<g id="edge4" class="edge">
<title>checkpoint_timeout&#45;&gt;bg_writer.checkpoints_req</title>
<path fill="none" stroke="black" d="M152.72,-144.05C145.53,-135.67 136.71,-125.38 128.75,-116.1"/>
<polygon fill="black" stroke="black" points="131.21,-113.59 122.05,-108.28 125.9,-118.15 131.21,-113.59"/>
</g>
<!-- latency -->
<g id="node6" class="node">
<title>latency</title>
<ellipse fill="none" stroke="black" cx="1094.24" cy="-18" rx="37.09" ry="18"/>
<text text-anchor="middle" x="1094.24" y="-14.3" font-family="Times,serif" font-size="14.00">latency</text>
</g>
<!-- wal.wal_records&#45;&gt;latency -->
<g id="edge5" class="edge">
<title>wal.wal_records&#45;&gt;latency</title>
<path fill="none" stroke="black" d="M353.41,-77.26C363.26,-75.26 373.54,-73.39 383.24,-72 631.88,-36.48 933.06,-23.97 1047.28,-20.31"/>
<polygon fill="black" stroke="black" points="1047.53,-23.8 1057.42,-19.99 1047.32,-16.81 1047.53,-23.8"/>
</g>
<!-- wal.wal_bytes&#45;&gt;latency -->
<g id="edge6" class="edge">
<title>wal.wal_bytes&#45;&gt;latency</title>
<path fill="none" stroke="black" d="M500.37,-77.33C509.23,-75.33 518.5,-73.43 527.24,-72 718.8,-40.59 950.06,-26.18 1047.43,-21.18"/>
<polygon fill="black" stroke="black" points="1047.72,-24.67 1057.53,-20.67 1047.37,-17.67 1047.72,-24.67"/>
</g>
<!-- bg_writer.checkpoints_timed&#45;&gt;latency -->
<g id="edge7" class="edge">
<title>bg_writer.checkpoints_timed&#45;&gt;latency</title>
<path fill="none" stroke="black" d="M730.5,-76.61C823.21,-61.92 974.5,-37.96 1049.37,-26.11"/>
<polygon fill="black" stroke="black" points="1050.08,-29.54 1059.41,-24.52 1048.99,-22.62 1050.08,-29.54"/>
</g>
<!-- bg_writer.checkpoints_req&#45;&gt;latency -->
<g id="edge8" class="edge">
<title>bg_writer.checkpoints_req&#45;&gt;latency</title>
<path fill="none" stroke="black" d="M182,-77.09C195.7,-75.18 209.88,-73.38 223.24,-72 536.85,-39.54 916.19,-24.83 1047.13,-20.46"/>
<polygon fill="black" stroke="black" points="1047.34,-23.96 1057.22,-20.13 1047.11,-16.96 1047.34,-23.96"/>
</g>
<!-- shared_buffers -->
<g id="node7" class="node">
<title>shared_buffers</title>
<ellipse fill="none" stroke="black" cx="903.24" cy="-162" rx="64.19" ry="18"/>
<text text-anchor="middle" x="903.24" y="-158.3" font-family="Times,serif" font-size="14.00">shared_buffers</text>
</g>
<!-- io_index.idx_blks_read -->
<g id="node8" class="node">
<title>io_index.idx_blks_read</title>
<ellipse fill="none" stroke="black" cx="883.24" cy="-90" rx="96.38" ry="18"/>
<text text-anchor="middle" x="883.24" y="-86.3" font-family="Times,serif" font-size="14.00">io_index.idx_blks_read</text>
</g>
<!-- shared_buffers&#45;&gt;io_index.idx_blks_read -->
<g id="edge9" class="edge">
<title>shared_buffers&#45;&gt;io_index.idx_blks_read</title>
<path fill="none" stroke="black" d="M898.3,-143.7C896.07,-135.9 893.39,-126.51 890.91,-117.83"/>
<polygon fill="black" stroke="black" points="894.24,-116.76 888.13,-108.1 887.51,-118.68 894.24,-116.76"/>
</g>
<!-- stat_database.blks_read -->
<g id="node9" class="node">
<title>stat_database.blks_read</title>
<ellipse fill="none" stroke="black" cx="1094.24" cy="-90" rx="96.68" ry="18"/>
<text text-anchor="middle" x="1094.24" y="-86.3" font-family="Times,serif" font-size="14.00">stat_database.blks_read</text>
</g>
<!-- shared_buffers&#45;&gt;stat_database.blks_read -->
<g id="edge10" class="edge">
<title>shared_buffers&#45;&gt;stat_database.blks_read</title>
<path fill="none" stroke="black" d="M940.98,-147.17C970.14,-136.48 1010.81,-121.57 1042.93,-109.8"/>
<polygon fill="black" stroke="black" points="1044.42,-112.99 1052.6,-106.26 1042.01,-106.41 1044.42,-112.99"/>
</g>
<!-- stat_database.blks_hit -->
<g id="node10" class="node">
<title>stat_database.blks_hit</title>
<ellipse fill="none" stroke="black" cx="1300.24" cy="-90" rx="90.98" ry="18"/>
<text text-anchor="middle" x="1300.24" y="-86.3" font-family="Times,serif" font-size="14.00">stat_database.blks_hit</text>
</g>
<!-- shared_buffers&#45;&gt;stat_database.blks_hit -->
<g id="edge11" class="edge">
<title>shared_buffers&#45;&gt;stat_database.blks_hit</title>
<path fill="none" stroke="black" d="M950.51,-149.65C959.37,-147.66 968.57,-145.69 977.24,-144 1075.77,-124.75 1101.2,-124.41 1200.24,-108 1207.88,-106.73 1215.84,-105.4 1223.78,-104.06"/>
<polygon fill="black" stroke="black" points="1224.54,-107.49 1233.82,-102.37 1223.38,-100.58 1224.54,-107.49"/>
</g>
<!-- io_index.idx_blks_read&#45;&gt;latency -->
<g id="edge12" class="edge">
<title>io_index.idx_blks_read&#45;&gt;latency</title>
<path fill="none" stroke="black" d="M928.25,-74.07C965.86,-61.59 1018.97,-43.97 1054.91,-32.05"/>
<polygon fill="black" stroke="black" points="1056.17,-35.32 1064.56,-28.85 1053.97,-28.67 1056.17,-35.32"/>
</g>
<!-- stat_database.blks_read&#45;&gt;latency -->
<g id="edge13" class="edge">
<title>stat_database.blks_read&#45;&gt;latency</title>
<path fill="none" stroke="black" d="M1094.24,-71.7C1094.24,-63.98 1094.24,-54.71 1094.24,-46.11"/>
<polygon fill="black" stroke="black" points="1097.74,-46.1 1094.24,-36.1 1090.74,-46.1 1097.74,-46.1"/>
</g>
<!-- stat_database.blks_hit&#45;&gt;latency -->
<g id="edge14" class="edge">
<title>stat_database.blks_hit&#45;&gt;latency</title>
<path fill="none" stroke="black" d="M1256.55,-74.15C1220.22,-61.81 1168.95,-44.39 1133.81,-32.45"/>
<polygon fill="black" stroke="black" points="1134.5,-28.98 1123.91,-29.08 1132.25,-35.61 1134.5,-28.98"/>
</g>
<!-- bgwriter_delay -->
<g id="node11" class="node">
<title>bgwriter_delay</title>
<ellipse fill="none" stroke="black" cx="1467.24" cy="-162" rx="65.79" ry="18"/>
<text text-anchor="middle" x="1467.24" y="-158.3" font-family="Times,serif" font-size="14.00">bgwriter_delay</text>
</g>
<!-- bg_writer.buffers_backend -->
<g id="node12" class="node">
<title>bg_writer.buffers_backend</title>
<ellipse fill="none" stroke="black" cx="1518.24" cy="-90" rx="108.58" ry="18"/>
<text text-anchor="middle" x="1518.24" y="-86.3" font-family="Times,serif" font-size="14.00">bg_writer.buffers_backend</text>
</g>
<!-- bgwriter_delay&#45;&gt;bg_writer.buffers_backend -->
<g id="edge15" class="edge">
<title>bgwriter_delay&#45;&gt;bg_writer.buffers_backend</title>
<path fill="none" stroke="black" d="M1479.59,-144.05C1485.64,-135.75 1493.04,-125.58 1499.75,-116.38"/>
<polygon fill="black" stroke="black" points="1502.59,-118.42 1505.65,-108.28 1496.94,-114.3 1502.59,-118.42"/>
</g>
<!-- bg_writer.buffers_backend&#45;&gt;latency -->
<g id="edge16" class="edge">
<title>bg_writer.buffers_backend&#45;&gt;latency</title>
<path fill="none" stroke="black" d="M1444.39,-76.81C1356.19,-62.25 1211.5,-38.36 1138.83,-26.36"/>
<polygon fill="black" stroke="black" points="1139.08,-22.86 1128.65,-24.68 1137.94,-29.76 1139.08,-22.86"/>
</g>
<!-- effective_cache_size -->
<g id="node13" class="node">
<title>effective_cache_size</title>
<ellipse fill="none" stroke="black" cx="1072.24" cy="-162" rx="86.38" ry="18"/>
<text text-anchor="middle" x="1072.24" y="-158.3" font-family="Times,serif" font-size="14.00">effective_cache_size</text>
</g>
<!-- effective_cache_size&#45;&gt;io_index.idx_blks_read -->
<g id="edge17" class="edge">
<title>effective_cache_size&#45;&gt;io_index.idx_blks_read</title>
<path fill="none" stroke="black" d="M1031.7,-145.98C1003.21,-135.43 964.9,-121.24 934.33,-109.92"/>
<polygon fill="black" stroke="black" points="935.29,-106.55 924.7,-106.35 932.86,-113.11 935.29,-106.55"/>
</g>
<!-- effective_cache_size&#45;&gt;stat_database.blks_read -->
<g id="edge18" class="edge">
<title>effective_cache_size&#45;&gt;stat_database.blks_read</title>
<path fill="none" stroke="black" d="M1077.68,-143.7C1080.13,-135.9 1083.08,-126.51 1085.81,-117.83"/>
<polygon fill="black" stroke="black" points="1089.21,-118.69 1088.86,-108.1 1082.53,-116.59 1089.21,-118.69"/>
</g>
<!-- effective_cache_size&#45;&gt;stat_database.blks_hit -->
<g id="edge19" class="edge">
<title>effective_cache_size&#45;&gt;stat_database.blks_hit</title>
<path fill="none" stroke="black" d="M1118.65,-146.75C1154.63,-135.7 1204.66,-120.34 1243.1,-108.54"/>
<polygon fill="black" stroke="black" points="1244.58,-111.75 1253.11,-105.47 1242.52,-105.06 1244.58,-111.75"/>
</g>
<!-- checkpoint_completion_target -->
<g id="node14" class="node">
<title>checkpoint_completion_target</title>
<ellipse fill="none" stroke="black" cx="390.24" cy="-162" rx="121.58" ry="18"/>
<text text-anchor="middle" x="390.24" y="-158.3" font-family="Times,serif" font-size="14.00">checkpoint_completion_target</text>
</g>
<!-- checkpoint_completion_target&#45;&gt;wal.wal_records -->
<g id="edge20" class="edge">
<title>checkpoint_completion_target&#45;&gt;wal.wal_records</title>
<path fill="none" stroke="black" d="M369.18,-144.05C357.9,-134.98 343.85,-123.68 331.63,-113.84"/>
<polygon fill="black" stroke="black" points="333.49,-110.85 323.51,-107.31 329.1,-116.3 333.49,-110.85"/>
</g>
<!-- checkpoint_completion_target&#45;&gt;wal.wal_bytes -->
<g id="edge21" class="edge">
<title>checkpoint_completion_target&#45;&gt;wal.wal_bytes</title>
<path fill="none" stroke="black" d="M405.98,-144.05C413.96,-135.46 423.8,-124.86 432.59,-115.4"/>
<polygon fill="black" stroke="black" points="435.41,-117.5 439.65,-107.79 430.28,-112.74 435.41,-117.5"/>
</g>
<!-- checkpoint_completion_target&#45;&gt;bg_writer.checkpoints_timed -->
<g id="edge22" class="edge">
<title>checkpoint_completion_target&#45;&gt;bg_writer.checkpoints_timed</title>
<path fill="none" stroke="black" d="M446.45,-145.98C487.6,-134.99 543.56,-120.04 586.73,-108.5"/>
<polygon fill="black" stroke="black" points="587.82,-111.83 596.58,-105.87 586.01,-105.07 587.82,-111.83"/>
</g>
<!-- checkpoint_completion_target&#45;&gt;bg_writer.checkpoints_req -->
<g id="edge23" class="edge">
<title>checkpoint_completion_target&#45;&gt;bg_writer.checkpoints_req</title>
<path fill="none" stroke="black" d="M330.57,-146.24C285,-134.97 222.18,-119.43 174.77,-107.7"/>
<polygon fill="black" stroke="black" points="175.44,-104.26 164.9,-105.26 173.76,-111.06 175.44,-104.26"/>
</g>
<!-- default_statistics_target -->
<g id="node15" class="node">
<title>default_statistics_target</title>
<ellipse fill="none" stroke="black" cx="1859.24" cy="-162" rx="96.68" ry="18"/>
<text text-anchor="middle" x="1859.24" y="-158.3" font-family="Times,serif" font-size="14.00">default_statistics_target</text>
</g>
<!-- stat_database.xact_commit -->
<g id="node16" class="node">
<title>stat_database.xact_commit</title>
<ellipse fill="none" stroke="black" cx="1754.24" cy="-90" rx="109.38" ry="18"/>
<text text-anchor="middle" x="1754.24" y="-86.3" font-family="Times,serif" font-size="14.00">stat_database.xact_commit</text>
</g>
<!-- default_statistics_target&#45;&gt;stat_database.xact_commit -->
<g id="edge24" class="edge">
<title>default_statistics_target&#45;&gt;stat_database.xact_commit</title>
<path fill="none" stroke="black" d="M1834.62,-144.59C1820.64,-135.26 1802.93,-123.46 1787.7,-113.31"/>
<polygon fill="black" stroke="black" points="1789.33,-110.19 1779.07,-107.55 1785.45,-116.01 1789.33,-110.19"/>
</g>
<!-- stat_database.xact_commit&#45;&gt;latency -->
<g id="edge25" class="edge">
<title>stat_database.xact_commit&#45;&gt;latency</title>
<path fill="none" stroke="black" d="M1676.55,-77.29C1663.12,-75.42 1649.29,-73.58 1636.24,-72 1453.04,-49.86 1234.13,-30.67 1140.46,-22.8"/>
<polygon fill="black" stroke="black" points="1140.71,-19.31 1130.46,-21.97 1140.13,-26.29 1140.71,-19.31"/>
</g>
<!-- max_wal_size -->
<g id="node17" class="node">
<title>max_wal_size</title>
<ellipse fill="none" stroke="black" cx="593.24" cy="-162" rx="63.09" ry="18"/>
<text text-anchor="middle" x="593.24" y="-158.3" font-family="Times,serif" font-size="14.00">max_wal_size</text>
</g>
<!-- max_wal_size&#45;&gt;wal.wal_records -->
<g id="edge26" class="edge">
<title>max_wal_size&#45;&gt;wal.wal_records</title>
<path fill="none" stroke="black" d="M546.65,-149.75C496.61,-137.67 416.96,-118.45 362.49,-105.3"/>
<polygon fill="black" stroke="black" points="363.17,-101.87 352.63,-102.92 361.53,-108.67 363.17,-101.87"/>
</g>
<!-- max_wal_size&#45;&gt;wal.wal_bytes -->
<g id="edge27" class="edge">
<title>max_wal_size&#45;&gt;wal.wal_bytes</title>
<path fill="none" stroke="black" d="M563.64,-145.98C543.26,-135.65 516,-121.82 493.91,-110.61"/>
<polygon fill="black" stroke="black" points="495.3,-107.39 484.8,-105.99 492.13,-113.64 495.3,-107.39"/>
</g>
<!-- max_wal_size&#45;&gt;bg_writer.checkpoints_timed -->
<g id="edge28" class="edge">
<title>max_wal_size&#45;&gt;bg_writer.checkpoints_timed</title>
<path fill="none" stroke="black" d="M607.22,-144.41C614.46,-135.82 623.45,-125.16 631.48,-115.63"/>
<polygon fill="black" stroke="black" points="634.18,-117.86 637.95,-107.96 628.83,-113.35 634.18,-117.86"/>
</g>
<!-- max_wal_size&#45;&gt;bg_writer.checkpoints_req -->
<g id="edge29" class="edge">
<title>max_wal_size&#45;&gt;bg_writer.checkpoints_req</title>
<path fill="none" stroke="black" d="M547.69,-149.44C538.95,-147.45 529.84,-145.53 521.24,-144 389.9,-120.64 355.47,-125.67 223.24,-108 213.88,-106.75 204.11,-105.39 194.37,-104.01"/>
<polygon fill="black" stroke="black" points="194.66,-100.52 184.26,-102.57 193.67,-107.45 194.66,-100.52"/>
</g>
<!-- bgwriter_lru_maxpages -->
<g id="node18" class="node">
<title>bgwriter_lru_maxpages</title>
<ellipse fill="none" stroke="black" cx="1647.24" cy="-162" rx="96.68" ry="18"/>
<text text-anchor="middle" x="1647.24" y="-158.3" font-family="Times,serif" font-size="14.00">bgwriter_lru_maxpages</text>
</g>
<!-- bgwriter_lru_maxpages&#45;&gt;bg_writer.buffers_backend -->
<g id="edge30" class="edge">
<title>bgwriter_lru_maxpages&#45;&gt;bg_writer.buffers_backend</title>
<path fill="none" stroke="black" d="M1617.32,-144.76C1599.46,-135.07 1576.57,-122.65 1557.3,-112.19"/>
<polygon fill="black" stroke="black" points="1558.9,-109.08 1548.44,-107.39 1555.56,-115.24 1558.9,-109.08"/>
</g>
<!-- effective_io_concurrency -->
<g id="node19" class="node">
<title>effective_io_concurrency</title>
<ellipse fill="none" stroke="black" cx="1280.24" cy="-162" rx="103.18" ry="18"/>
<text text-anchor="middle" x="1280.24" y="-158.3" font-family="Times,serif" font-size="14.00">effective_io_concurrency</text>
</g>
<!-- effective_io_concurrency&#45;&gt;io_index.idx_blks_read -->
<g id="edge31" class="edge">
<title>effective_io_concurrency&#45;&gt;io_index.idx_blks_read</title>
<path fill="none" stroke="black" d="M1210.18,-148.65C1140.23,-136.31 1033,-117.41 960.59,-104.64"/>
<polygon fill="black" stroke="black" points="961.07,-101.17 950.62,-102.88 959.86,-108.06 961.07,-101.17"/>
</g>
<!-- effective_io_concurrency&#45;&gt;stat_database.blks_read -->
<g id="edge32" class="edge">
<title>effective_io_concurrency&#45;&gt;stat_database.blks_read</title>
<path fill="none" stroke="black" d="M1238.96,-145.46C1211.17,-135.01 1174.35,-121.15 1144.8,-110.03"/>
<polygon fill="black" stroke="black" points="1145.68,-106.62 1135.08,-106.37 1143.21,-113.17 1145.68,-106.62"/>
</g>
<!-- effective_io_concurrency&#45;&gt;stat_database.blks_hit -->
<g id="edge33" class="edge">
<title>effective_io_concurrency&#45;&gt;stat_database.blks_hit</title>
<path fill="none" stroke="black" d="M1285.18,-143.7C1287.41,-135.9 1290.1,-126.51 1292.58,-117.83"/>
<polygon fill="black" stroke="black" points="1295.97,-118.68 1295.35,-108.1 1289.24,-116.76 1295.97,-118.68"/>
</g>
<!-- deadlock_timeout -->
<g id="node20" class="node">
<title>deadlock_timeout</title>
<ellipse fill="none" stroke="black" cx="2148.24" cy="-162" rx="76.09" ry="18"/>
<text text-anchor="middle" x="2148.24" y="-158.3" font-family="Times,serif" font-size="14.00">deadlock_timeout</text>
</g>
<!-- stat_database.deadlocks -->
<g id="node21" class="node">
<title>stat_database.deadlocks</title>
<ellipse fill="none" stroke="black" cx="2227.24" cy="-90" rx="98.28" ry="18"/>
<text text-anchor="middle" x="2227.24" y="-86.3" font-family="Times,serif" font-size="14.00">stat_database.deadlocks</text>
</g>
<!-- deadlock_timeout&#45;&gt;stat_database.deadlocks -->
<g id="edge34" class="edge">
<title>deadlock_timeout&#45;&gt;stat_database.deadlocks</title>
<path fill="none" stroke="black" d="M2166.96,-144.41C2177.02,-135.5 2189.6,-124.36 2200.65,-114.56"/>
<polygon fill="black" stroke="black" points="2203.22,-116.96 2208.38,-107.71 2198.57,-111.72 2203.22,-116.96"/>
</g>
<!-- db_conflicts.confl_deadlock -->
<g id="node22" class="node">
<title>db_conflicts.confl_deadlock</title>
<ellipse fill="none" stroke="black" cx="1996.24" cy="-90" rx="114.28" ry="18"/>
<text text-anchor="middle" x="1996.24" y="-86.3" font-family="Times,serif" font-size="14.00">db_conflicts.confl_deadlock</text>
</g>
<!-- deadlock_timeout&#45;&gt;db_conflicts.confl_deadlock -->
<g id="edge35" class="edge">
<title>deadlock_timeout&#45;&gt;db_conflicts.confl_deadlock</title>
<path fill="none" stroke="black" d="M2114.88,-145.64C2093.05,-135.58 2064.27,-122.33 2040.53,-111.4"/>
<polygon fill="black" stroke="black" points="2041.92,-108.18 2031.37,-107.18 2038.99,-114.54 2041.92,-108.18"/>
</g>
<!-- stat_database.deadlocks&#45;&gt;latency -->
<g id="edge36" class="edge">
<title>stat_database.deadlocks&#45;&gt;latency</title>
<path fill="none" stroke="black" d="M2158.53,-77.08C2145.52,-75.14 2131.98,-73.33 2119.24,-72 1744.04,-32.88 1288.43,-22.22 1141.99,-19.7"/>
<polygon fill="black" stroke="black" points="1141.64,-16.19 1131.58,-19.52 1141.52,-23.19 1141.64,-16.19"/>
</g>
<!-- db_conflicts.confl_deadlock&#45;&gt;latency -->
<g id="edge37" class="edge">
<title>db_conflicts.confl_deadlock&#45;&gt;latency</title>
<path fill="none" stroke="black" d="M1915.63,-77.14C1901.2,-75.24 1886.29,-73.44 1872.24,-72 1595.79,-43.67 1262.48,-26.7 1141.22,-21.08"/>
<polygon fill="black" stroke="black" points="1141.32,-17.58 1131.17,-20.62 1141,-24.57 1141.32,-17.58"/>
</g>
</g>
</svg>
